# Blender v2.79 (sub 0) OBJ File: 'Monolit1.blend'
# www.blender.org
mtllib Monolit1.mtl
o Monolit_Cube.006
v 17.215733 -35.137131 -12.457736
v 17.215733 -38.113655 -6.301332
v 4.150222 -35.137131 -6.301332
v 4.150222 -31.341873 -12.457736
v 17.215733 8.619061 -14.207038
v 17.215733 8.619061 -4.527223
v 4.150221 8.619061 -4.527224
v 4.150222 8.619061 -14.207038
v 13.000000 -1.000002 -14.000000
v 13.000000 -3.369698 1.000000
v -1.000000 -0.999996 2.619307
v -1.000000 -0.999996 -12.380693
v 13.000000 40.999996 -14.000000
v 13.000000 39.876751 1.000000
v -1.000001 41.000004 1.000000
v 2.021574 42.333569 -14.000000
v 7.765067 -10.920492 -20.782549
v 13.000000 -10.920492 -9.650620
v -1.000000 -10.920485 -9.650620
v -6.234933 -9.060688 -20.782549
v 10.503086 23.429951 -20.782549
v 13.000000 23.429951 -9.650620
v -1.000001 23.429958 -9.650620
v -3.496913 22.227089 -20.782549
v 11.799131 13.753792 -10.918673
v 11.799131 13.753792 -1.262826
v 4.375135 13.753792 -1.262826
v 4.375135 13.753792 -10.918673
v 11.799131 54.519711 -8.827013
v 11.799131 55.753796 -1.262825
v 4.375134 55.753796 -1.262826
v 3.083495 55.753796 -10.918673
v 15.261292 16.879753 -16.502909
v 15.261292 16.879753 -6.847061
v 7.837296 16.879757 -6.847062
v 7.837297 16.879757 -16.502909
v 15.261292 46.650524 -16.502909
v 15.261292 48.193729 -6.847061
v 7.837296 48.193729 -6.847062
v 8.776968 48.193729 -16.502909
v 15.261292 3.836819 -10.896618
v 15.261292 3.836819 -3.768089
v 7.837296 3.836823 -3.768089
v 7.837297 3.836823 -10.896618
v 15.261292 24.720333 -10.896618
v 15.261292 23.730831 -3.768088
v 7.837296 24.720333 -3.768089
v 7.837296 24.720333 -10.896618
v 6.858391 29.976604 -3.741092
v 6.858391 31.503464 3.993395
v 0.502864 29.976608 2.501055
v 1.615437 29.976604 -5.233432
v 6.858391 70.788132 -3.741092
v 6.858391 73.531448 3.993395
v 0.502864 70.951584 2.501055
v 0.502865 71.695786 -5.233432
vn -0.2214 -0.8545 -0.4699
vn 0.0000 1.0000 0.0000
vn 1.0000 -0.0000 0.0000
vn -0.0045 -0.0392 0.9992
vn -1.0000 -0.0000 -0.0000
vn -0.0061 -0.0418 -0.9991
vn -0.0931 -0.9926 -0.0784
vn 0.0975 0.9911 0.0910
vn 0.0601 0.0190 0.9980
vn -0.9946 0.0315 -0.0988
vn -0.0656 -0.0166 -0.9977
vn -0.0662 -0.9964 -0.0521
vn -0.0429 0.9981 -0.0443
vn 0.9440 -0.0376 -0.3278
vn 0.0000 0.0000 1.0000
vn -0.9436 0.0394 0.3288
vn 0.0000 0.0000 -1.0000
vn 0.0000 -1.0000 0.0000
vn 0.0860 0.9933 -0.0776
vn -0.9977 -0.0153 0.0667
vn 0.1305 0.0271 -0.9911
vn 0.1100 0.9912 -0.0739
vn -0.9987 0.0150 -0.0486
vn 0.0663 0.9954 0.0691
vn 0.1032 -0.9891 0.1050
vn -0.0999 0.9868 -0.1275
vn -0.2286 -0.0000 0.9735
vn -0.9973 -0.0134 -0.0724
vn 0.2495 0.0034 -0.9684
usemtl Material.006
s off
f 1//1 2//1 3//1 4//1
f 5//2 8//2 7//2 6//2
f 1//3 5//3 6//3 2//3
f 2//4 6//4 7//4 3//4
f 3//5 7//5 8//5 4//5
f 5//6 1//6 4//6 8//6
usemtl Material
f 9//7 10//7 11//7 12//7
f 13//8 16//8 15//8 14//8
f 9//3 13//3 14//3 10//3
f 10//9 14//9 15//9 11//9
f 11//10 15//10 16//10 12//10
f 13//11 9//11 12//11 16//11
usemtl Material.002
f 17//12 18//12 19//12 20//12
f 21//13 24//13 23//13 22//13
f 17//14 21//14 22//14 18//14
f 18//15 22//15 23//15 19//15
f 19//16 23//16 24//16 20//16
f 21//17 17//17 20//17 24//17
usemtl Material.003
f 25//18 26//18 27//18 28//18
f 29//19 32//19 31//19 30//19
f 25//3 29//3 30//3 26//3
f 26//15 30//15 31//15 27//15
f 27//20 31//20 32//20 28//20
f 29//21 25//21 28//21 32//21
usemtl Material.004
f 33//18 34//18 35//18 36//18
f 37//22 40//22 39//22 38//22
f 33//3 37//3 38//3 34//3
f 34//15 38//15 39//15 35//15
f 35//23 39//23 40//23 36//23
f 37//17 33//17 36//17 40//17
usemtl Material.005
f 41//18 42//18 43//18 44//18
f 45//24 48//24 47//24 46//24
f 41//3 45//3 46//3 42//3
f 42//15 46//15 47//15 43//15
f 43//5 47//5 48//5 44//5
f 45//17 41//17 44//17 48//17
usemtl Material.007
f 49//25 50//25 51//25 52//25
f 53//26 56//26 55//26 54//26
f 49//3 53//3 54//3 50//3
f 50//27 54//27 55//27 51//27
f 51//28 55//28 56//28 52//28
f 53//29 49//29 52//29 56//29
