# Blender v2.79 (sub 0) OBJ File: 'Monolit1.blend'
# www.blender.org
mtllib Monolit2.mtl
o Куб.006
v 1.389372 3.672367 -10.221398
v 2.145082 20.430151 -10.221398
v 2.145082 3.133848 -12.221398
v 2.145082 18.566513 -12.221398
v 3.389372 3.672367 -10.221398
v 4.145082 20.430151 -10.221398
v 4.145082 3.133848 -12.221398
v 4.145082 20.430151 -12.221398
v 4.951180 23.909145 -8.324900
v 4.951180 42.258640 -8.324900
v 4.951180 25.016655 -10.324900
v 4.951180 44.520477 -10.324900
v 6.951180 25.016655 -8.324900
v 6.951180 43.366150 -8.324900
v 7.879547 25.016655 -10.324900
v 7.879547 44.520477 -10.324900
v 2.619923 11.475825 -6.163563
v 2.619923 27.162434 -6.163563
v 3.499146 9.587966 -10.324900
v 3.499146 25.913879 -10.324900
v 5.499146 10.870611 -6.163563
v 5.499146 26.619728 -6.163563
v 5.499146 9.587966 -10.324900
v 5.499146 27.162434 -9.761837
v 6.730818 -20.074076 -4.971539
v 5.803152 -1.609337 -4.971539
v 3.113529 -20.074076 -10.742420
v 3.113529 -0.570253 -10.742420
v 11.663248 -20.074076 -4.971539
v 10.735582 0.132210 -4.971539
v 9.110395 -20.074076 -10.742420
v 10.099060 -0.570253 -10.742420
v 0.447050 -25.842463 -6.930011
v 1.338907 -7.014147 -6.930011
v 1.338907 -25.842463 -10.324900
v 1.338907 -5.568138 -10.324900
v 4.075535 -25.842463 -6.930011
v 5.627707 -6.338638 -6.930011
v 4.967392 -25.842463 -10.324900
v 4.967392 -5.568138 -10.324900
v 5.670116 -16.498293 -8.902996
v 5.670116 3.005527 -8.902996
v 7.086178 -16.498293 -10.324900
v 7.086178 3.005527 -10.324900
v 6.951180 -16.498293 -8.324900
v 6.951180 3.005527 -8.324900
v 9.086178 -16.498293 -10.324900
v 7.924217 3.506750 -8.907783
v 4.568081 -18.124285 -9.289468
v 4.568081 0.627071 -8.608103
v 5.377588 -18.124285 -13.689623
v 5.377588 1.379539 -13.689623
v 8.300180 -18.124285 -9.289468
v 8.014326 1.379539 -8.686768
v 8.300180 -18.124285 -13.689623
v 8.300180 1.379539 -13.689623
v 5.455418 -3.007469 -7.322884
v 5.455418 19.472944 -7.322884
v 5.455418 -3.007469 -9.322884
v 5.455418 19.472944 -9.322884
v 8.400805 -3.007469 -7.322884
v 7.413782 19.472944 -7.322884
v 8.400805 -3.007469 -9.322884
v 9.079784 20.062696 -9.322884
vn -0.9797 0.0230 -0.1989
vn 0.0000 0.0000 -1.0000
vn 0.9818 -0.0218 0.1884
vn 0.0000 0.0000 1.0000
vn 0.0000 -0.9656 0.2600
vn -0.3890 0.8350 -0.3890
vn -1.0000 0.0000 0.0000
vn 0.9070 0.0000 0.4210
vn 0.2142 -0.9530 -0.2142
vn -0.1727 0.7684 0.6162
vn -0.9784 0.0000 -0.2067
vn 0.1343 0.0165 -0.9908
vn 1.0000 0.0000 0.0000
vn -0.1156 -0.9322 0.3429
vn -0.1306 0.9859 -0.1045
vn -0.8781 -0.0215 0.4779
vn 0.9639 -0.0015 -0.2663
vn 0.0000 -1.0000 0.0000
vn -0.1442 0.9870 0.0704
vn -0.9918 0.0226 -0.1255
vn 0.9988 -0.0390 0.0296
vn -0.0806 0.9452 0.3164
vn -0.7086 0.0000 -0.7056
vn 0.4399 0.0451 -0.8969
vn 0.6399 -0.0087 0.7684
vn -0.4113 0.0000 0.9115
vn -0.2171 0.9760 -0.0147
vn -0.9858 0.0030 -0.1681
vn 0.9995 0.0069 0.0304
vn 0.0145 -0.0334 0.9993
vn -0.1164 0.9913 0.0613
vn 0.9228 0.0062 0.3853
vn -0.1045 0.9892 0.1023
usemtl None
s off
f 1//1 2//1 4//1 3//1
f 3//2 4//2 8//2 7//2
f 7//3 8//3 6//3 5//3
f 5//4 6//4 2//4 1//4
f 3//5 7//5 5//5 1//5
f 8//6 4//6 2//6 6//6
f 9//7 10//7 12//7 11//7
f 11//2 12//2 16//2 15//2
f 15//8 16//8 14//8 13//8
f 13//4 14//4 10//4 9//4
f 11//9 15//9 13//9 9//9
f 16//10 12//10 10//10 14//10
f 17//11 18//11 20//11 19//11
f 19//12 20//12 24//12 23//12
f 23//13 24//13 22//13 21//13
f 21//4 22//4 18//4 17//4
f 19//14 23//14 21//14 17//14
f 24//15 20//15 18//15 22//15
f 25//16 26//16 28//16 27//16
f 27//2 28//2 32//2 31//2
f 31//17 32//17 30//17 29//17
f 29//4 30//4 26//4 25//4
f 27//18 31//18 29//18 25//18
f 32//19 28//19 26//19 30//19
f 33//20 34//20 36//20 35//20
f 35//2 36//2 40//2 39//2
f 39//21 40//21 38//21 37//21
f 37//4 38//4 34//4 33//4
f 35//18 39//18 37//18 33//18
f 40//22 36//22 34//22 38//22
f 41//23 42//23 44//23 43//23
f 43//24 44//24 48//24 47//24
f 47//25 48//25 46//25 45//25
f 45//26 46//26 42//26 41//26
f 43//18 47//18 45//18 41//18
f 48//27 44//27 42//27 46//27
f 49//28 50//28 52//28 51//28
f 51//2 52//2 56//2 55//2
f 55//29 56//29 54//29 53//29
f 53//30 54//30 50//30 49//30
f 51//18 55//18 53//18 49//18
f 56//31 52//31 50//31 54//31
f 57//7 58//7 60//7 59//7
f 59//2 60//2 64//2 63//2
f 63//32 64//32 62//32 61//32
f 61//4 62//4 58//4 57//4
f 59//18 63//18 61//18 57//18
f 64//33 60//33 58//33 62//33
